<svg width="760" height="360" viewBox="0 0 760 360" fill="none" xmlns="http://www.w3.org/2000/svg">
  <rect width="760" height="360" rx="22" fill="#0F172A"/>
  <g filter="url(#f0)">
    <path d="M120 250C150 190 214 172 260 194C306 216 354 196 380 166C420 120 504 118 542 164C570 198 638 204 662 164" stroke="url(#gradA)" stroke-width="10" stroke-linecap="round"/>
  </g>
  <circle cx="120" cy="250" r="16" fill="#22D3EE"/>
  <circle cx="260" cy="194" r="16" fill="#7C3AED"/>
  <circle cx="380" cy="166" r="16" fill="#22D3EE"/>
  <circle cx="504" cy="118" r="16" fill="#7C3AED"/>
  <circle cx="662" cy="164" r="16" fill="#22D3EE"/>
  <rect x="88" y="64" width="150" height="80" rx="14" fill="#111A2E" stroke="rgba(255,255,255,0.08)"/>
  <rect x="240" y="42" width="150" height="80" rx="14" fill="#111A2E" stroke="rgba(255,255,255,0.08)"/>
  <rect x="392" y="80" width="150" height="80" rx="14" fill="#111A2E" stroke="rgba(255,255,255,0.08)"/>
  <rect x="544" y="48" width="150" height="80" rx="14" fill="#111A2E" stroke="rgba(255,255,255,0.08)"/>
  <rect x="104" y="90" width="72" height="10" rx="5" fill="#1D2F4E"/>
  <rect x="104" y="110" width="94" height="10" rx="5" fill="#1D2F4E"/>
  <rect x="256" y="68" width="112" height="10" rx="5" fill="#1D2F4E"/>
  <rect x="256" y="88" width="78" height="10" rx="5" fill="#1D2F4E"/>
  <rect x="408" y="106" width="116" height="10" rx="5" fill="#1D2F4E"/>
  <rect x="408" y="126" width="74" height="10" rx="5" fill="#1D2F4E"/>
  <rect x="560" y="76" width="94" height="10" rx="5" fill="#1D2F4E"/>
  <rect x="560" y="96" width="116" height="10" rx="5" fill="#1D2F4E"/>
  <defs>
    <linearGradient id="gradA" x1="120" y1="250" x2="662" y2="164" gradientUnits="userSpaceOnUse">
      <stop stop-color="#22D3EE"/>
      <stop offset="1" stop-color="#7C3AED"/>
    </linearGradient>
    <filter id="f0" x="84" y="94" width="614" height="190" filterUnits="userSpaceOnUse" color-interpolation-filters="sRGB">
      <feGaussianBlur stdDeviation="12" result="blur"/>
      <feColorMatrix in="blur" type="matrix" values="0 0 0 0 0.137 0 0 0 0 0.133 0 0 0 0 0.278 0 0 0 0.55 0"/>
      <feBlend in="SourceGraphic" in2="blur"/>
    </filter>
  </defs>
</svg>
