<svg width="760" height="520" viewBox="0 0 760 520" fill="none" xmlns="http://www.w3.org/2000/svg">
  <rect width="760" height="520" rx="28" fill="#0F172A"/>
  <rect x="36" y="32" width="688" height="456" rx="22" fill="url(#grad1)"/>
  <rect x="60" y="64" width="640" height="400" rx="18" fill="#0B1222" stroke="rgba(255,255,255,0.1)" stroke-width="2"/>
  <rect x="88" y="100" width="186" height="58" rx="12" fill="#111A2E" stroke="rgba(255,255,255,0.1)"/>
  <rect x="294" y="100" width="206" height="58" rx="12" fill="#111A2E" stroke="rgba(255,255,255,0.1)"/>
  <rect x="520" y="100" width="122" height="58" rx="12" fill="#111A2E" stroke="rgba(255,255,255,0.1)"/>
  <rect x="88" y="192" width="554" height="48" rx="12" fill="#0F1A31" stroke="rgba(255,255,255,0.08)"/>
  <rect x="88" y="260" width="554" height="170" rx="18" fill="#0F1D36" stroke="rgba(255,255,255,0.06)"/>
  <rect x="112" y="284" width="208" height="30" rx="8" fill="#7C3AED" opacity="0.8"/>
  <rect x="334" y="284" width="172" height="30" rx="8" fill="#22D3EE" opacity="0.8"/>
  <rect x="520" y="284" width="100" height="30" rx="8" fill="#7C3AED" opacity="0.65"/>
  <rect x="112" y="330" width="240" height="24" rx="7" fill="#16233B"/>
  <rect x="374" y="330" width="156" height="24" rx="7" fill="#16233B"/>
  <rect x="550" y="330" width="72" height="24" rx="7" fill="#16233B"/>
  <rect x="112" y="370" width="112" height="18" rx="6" fill="#1D2F4E"/>
  <rect x="240" y="370" width="96" height="18" rx="6" fill="#7C3AED" opacity="0.7"/>
  <rect x="362" y="370" width="72" height="18" rx="6" fill="#1D2F4E"/>
  <rect x="452" y="370" width="170" height="18" rx="6" fill="#1D2F4E"/>
  <circle cx="120" cy="126" r="12" fill="#22D3EE"/>
  <circle cx="152" cy="126" r="12" fill="#7C3AED"/>
  <circle cx="184" cy="126" r="12" fill="#22D3EE"/>
  <path d="M140 214H470C510 214 532 238 532 262C532 286 510 310 470 310H220" stroke="url(#grad2)" stroke-width="12" stroke-linecap="round"/>
  <path d="M200 410C220 374 272 356 310 372C338 384 384 384 406 362C430 334 486 334 514 362" stroke="url(#grad3)" stroke-width="10" stroke-linecap="round"/>
  <rect x="320" y="180" width="6" height="220" rx="3" fill="rgba(255,255,255,0.08)"/>
  <rect x="454" y="180" width="6" height="220" rx="3" fill="rgba(255,255,255,0.08)"/>
  <circle cx="610" cy="210" r="16" fill="#7C3AED" opacity="0.75"/>
  <circle cx="640" cy="210" r="10" fill="#22D3EE"/>
  <circle cx="668" cy="210" r="6" fill="#7C3AED"/>
  <defs>
    <linearGradient id="grad1" x1="0" y1="0" x2="760" y2="520" gradientUnits="userSpaceOnUse">
      <stop stop-color="#1E1B4B"/>
      <stop offset="1" stop-color="#0F172A"/>
    </linearGradient>
    <linearGradient id="grad2" x1="140" y1="214" x2="532" y2="310" gradientUnits="userSpaceOnUse">
      <stop stop-color="#22D3EE"/>
      <stop offset="1" stop-color="#7C3AED"/>
    </linearGradient>
    <linearGradient id="grad3" x1="200" y1="334" x2="514" y2="410" gradientUnits="userSpaceOnUse">
      <stop stop-color="#7C3AED"/>
      <stop offset="1" stop-color="#22D3EE"/>
    </linearGradient>
  </defs>
</svg>
