<svg width="200" height="200" viewBox="0 0 200 200" fill="none" xmlns="http://www.w3.org/2000/svg">
  <rect x="12" y="12" width="176" height="176" rx="40" fill="#0B1222" stroke="url(#paint0_linear)" stroke-width="6"/>
  <path d="M60 120C60 94 80 74 106 74H116C128 74 138 84 138 96C138 108 128 118 116 118H92" stroke="#22D3EE" stroke-width="12" stroke-linecap="round"/>
  <path d="M60 96C60 122 80 142 106 142H116C128 142 138 132 138 120C138 108 128 98 116 98H92" stroke="#7C3AED" stroke-width="12" stroke-linecap="round"/>
  <circle cx="70" cy="76" r="10" fill="#22D3EE"/>
  <circle cx="130" cy="142" r="10" fill="#7C3AED"/>
  <defs>
    <linearGradient id="paint0_linear" x1="12" y1="12" x2="188" y2="188" gradientUnits="userSpaceOnUse">
      <stop stop-color="#7C3AED"/>
      <stop offset="1" stop-color="#22D3EE"/>
    </linearGradient>
  </defs>
</svg>
