<svg width="760" height="420" viewBox="0 0 760 420" fill="none" xmlns="http://www.w3.org/2000/svg">
  <rect width="760" height="420" rx="24" fill="#0F172A"/>
  <g filter="url(#shadow)">
    <rect x="44" y="44" width="672" height="332" rx="20" fill="#0B1222" stroke="rgba(255,255,255,0.08)" stroke-width="2"/>
  </g>
  <rect x="80" y="88" width="180" height="120" rx="16" fill="#111A2E" stroke="rgba(255,255,255,0.06)"/>
  <rect x="290" y="88" width="180" height="120" rx="16" fill="#111A2E" stroke="rgba(255,255,255,0.06)"/>
  <rect x="500" y="88" width="180" height="120" rx="16" fill="#111A2E" stroke="rgba(255,255,255,0.06)"/>
  <rect x="80" y="232" width="264" height="112" rx="16" fill="#0F1D36" stroke="rgba(255,255,255,0.05)"/>
  <rect x="370" y="232" width="310" height="112" rx="16" fill="#0F1D36" stroke="rgba(255,255,255,0.05)"/>
  <circle cx="124" cy="132" r="16" fill="#7C3AED" opacity="0.85"/>
  <circle cx="334" cy="132" r="16" fill="#22D3EE" opacity="0.85"/>
  <circle cx="544" cy="132" r="16" fill="#7C3AED" opacity="0.85"/>
  <rect x="108" y="164" width="120" height="10" rx="5" fill="#1D2F4E"/>
  <rect x="318" y="164" width="120" height="10" rx="5" fill="#1D2F4E"/>
  <rect x="528" y="164" width="120" height="10" rx="5" fill="#1D2F4E"/>
  <rect x="108" y="184" width="76" height="10" rx="5" fill="#1D2F4E"/>
  <rect x="318" y="184" width="76" height="10" rx="5" fill="#1D2F4E"/>
  <rect x="528" y="184" width="76" height="10" rx="5" fill="#1D2F4E"/>
  <rect x="118" y="260" width="170" height="20" rx="6" fill="#7C3AED" opacity="0.7"/>
  <rect x="118" y="290" width="140" height="12" rx="5" fill="#16233B"/>
  <rect x="118" y="314" width="94" height="12" rx="5" fill="#16233B"/>
  <rect x="404" y="260" width="120" height="20" rx="6" fill="#22D3EE" opacity="0.7"/>
  <rect x="404" y="290" width="170" height="12" rx="5" fill="#16233B"/>
  <rect x="404" y="314" width="214" height="12" rx="5" fill="#16233B"/>
  <circle cx="668" cy="290" r="18" fill="#7C3AED"/>
  <defs>
    <filter id="shadow" x="24" y="30" width="712" height="372" filterUnits="userSpaceOnUse" color-interpolation-filters="sRGB">
      <feFlood flood-opacity="0" result="BackgroundImageFix"/>
      <feGaussianBlur in="SourceAlpha" stdDeviation="10"/>
      <feOffset dy="8"/>
      <feComposite in2="SourceAlpha" operator="out"/>
      <feColorMatrix type="matrix" values="0 0 0 0 0.027 0 0 0 0 0.039 0 0 0 0 0.082 0 0 0 0.35 0"/>
      <feBlend in2="BackgroundImageFix" result="effect1_dropShadow"/>
      <feBlend in="SourceGraphic" in2="effect1_dropShadow" result="shape"/>
    </filter>
  </defs>
</svg>
